<svg xmlns="http://www.w3.org/2000/svg" version="1.1" xmlns:xlink="http://www.w3.org/1999/xlink" width="2000" height="106" viewBox="0 0 2000 106"><svg xml:space="preserve" width="2000" height="106" data-version="2" data-id="lg_UHAhsQPV5QN12RT70U" viewBox="0 0 568 106" x="0" y="0"><rect width="100%" height="100%" fill="transparent"></rect><path fill="#000000" d="M22.235 102.36h-16.2q-.55 0-.55-.7l.28-98.24q0-.56.55-.56h17.46q.56 0 .98.56l13.05 18.85 12.99-18.85q.42-.56 1.05-.56h17.53q.62 0 .62.56l.28 98.24q0 .7-.56.7h-16.19q-.56 0-.56-.7l-.14-72.97-15.02 21.79-14.87-21.79-.14 72.97q0 .7-.56.7"></path><rect width="64.79" height="99.5" x="-32.4" y="-49.75" fill="none" rx="0" ry="0" transform="translate(38.38 53.11)"></rect><path fill="#000000" d="M99.525 103.75q-7.61 0-14.03-3.91-6.35-3.91-10.23-10.44-3.87-6.52-3.87-14.34l.13-45.32q0-7.96 3.85-14.31 3.77-6.43 10.19-10.3 6.42-3.88 13.96-3.88 7.82 0 14.04 3.84 6.28 3.84 10.09 10.3 3.8 6.46 3.8 14.35l.14 45.32q0 7.82-3.77 14.31-3.84 6.56-10.19 10.47-6.36 3.91-14.11 3.91m0-17.24q4.33 0 7.55-3.53 3.21-3.53 3.21-7.92l-.14-45.32q0-4.75-3-8.03-3.01-3.28-7.62-3.28-4.39 0-7.54 3.21-3.14 3.21-3.14 8.1v45.32q0 4.67 3.14 8.06 3.15 3.39 7.54 3.39"></path><rect width="56.2" height="102.5" x="-28.1" y="-51.25" fill="none" rx="0" ry="0" transform="translate(100 53)"></rect><path fill="#000000" d="M144.775 102.36h-14.32q-1.12 0-1.12-.98l-.14-97.41q0-1.11 1.12-1.11h12.92l24.16 56.35-.7-55.24q0-1.11 1.26-1.11h14.17q.84 0 .84 1.11l.14 97.55q0 .84-.7.84h-12.57l-24.79-52.65 1.05 51.53q0 1.12-1.32 1.12"></path><rect width="53.91" height="99.5" x="-26.95" y="-49.75" fill="none" rx="0" ry="0" transform="translate(156.65 53.11)"></rect><path fill="#000000" d="M233.165 102.36h-46.23q-.55 0-.55-.7l.14-98.24q0-.56.55-.56h45.95q.56 0 .56.7v15.99q0 .55-.56.55h-29.33v22.35h29.33q.56 0 .56.56l.14 16.2q0 .55-.56.55h-29.47v25h29.47q.56 0 .56.7v16.34q0 .56-.56.56"></path><rect width="47.34" height="99.5" x="-23.67" y="-49.75" fill="none" rx="0" ry="0" transform="translate(210.56 53.11)"></rect><path fill="#000000" d="M267.095 102.36h-16.41q-.49 0-.49-.56l.14-40.64-19.13-57.74q-.14-.56.42-.56h15.92q.69 0 .83.56l10.55 38.47 10.75-38.47q.14-.56.7-.56h16.06q.56 0 .42.56l-19.34 57.18.14 41.2q0 .56-.56.56"></path><rect width="55.81" height="99.5" x="-27.9" y="-49.75" fill="none" rx="0" ry="0" transform="translate(259.53 53.11)"></rect><path fill="#000000" d="M315.965 102.36h-16.13q-.63 0-.63-.7V20.1h-18.57q-.7 0-.7-.69l.14-15.99q0-.56.56-.56h54.32q.77 0 .77.56v15.99q0 .69-.56.69h-18.78l.14 81.56q0 .7-.56.7"></path><rect width="55.79" height="99.5" x="-27.89" y="-49.75" fill="none" rx="0" ry="0" transform="translate(308.33 53.11)"></rect><path fill="#000000" d="M350.245 102.36h-16.2q-.56 0-.56-.7l.28-98.24q0-.56.56-.56h28.91q7.75 0 14.24 3.77t10.37 10.12q3.87 6.36 3.87 14.39 0 5.23-1.6 9.49-1.61 4.26-3.74 7.19-2.13 2.94-3.87 4.33 7.75 8.59 7.75 20.18l.14 29.33q0 .7-.7.7h-16.2q-.56 0-.56-.42V72.33q0-5.16-3.63-8.93-3.63-3.78-8.94-3.78h-9.42l-.14 42.04q0 .7-.56.7m12.99-82.4h-12.29v22.49h12.29q4.39 0 7.85-3.28 3.46-3.29 3.46-8.03 0-4.54-3.35-7.86-3.36-3.32-7.96-3.32"></path><rect width="58.23" height="99.5" x="-29.11" y="-49.75" fill="none" rx="0" ry="0" transform="translate(363.1 53.11)"></rect><path fill="#000000" d="m388.435 101.66 17.73-98.24q.14-.56.7-.56h20.74q.56 0 .7.56l17.03 98.24q.07.7-.56.7h-15.85q-.69 0-.76-.7l-1.54-10.47h-19.48l-1.54 10.47q-.07.7-.69.7h-15.92q-.56 0-.56-.7m28.62-71.22-.62 5.31-6.43 40.14h13.76l-5.87-40.14z"></path><rect width="56.93" height="99.5" x="-28.46" y="-49.75" fill="none" rx="0" ry="0" transform="translate(417.4 53.11)"></rect><path fill="#000000" d="M471.445 103.75q-7.75 0-14.17-3.91-6.36-3.91-10.09-10.5-3.74-6.6-3.74-14.7l.14-44.62q0-7.96 3.63-14.38 3.63-6.5 10.02-10.44 6.39-3.95 14.21-3.95 7.96 0 14.18 3.84 6.28 3.84 10.02 10.37 3.73 6.53 3.73 14.56v6.56q0 .56-.56.56h-16.06q-.55 0-.55-.56v-6.56q0-4.75-3.08-8.17-3.07-3.42-7.68-3.42-5.09 0-7.82 3.49-2.72 3.49-2.72 8.1v44.62q0 5.23 3.07 8.55 3.07 3.32 7.47 3.32 4.61 0 7.68-3.67 3.08-3.66 3.08-8.2V68q0-.55.55-.55h16.2q.56 0 .56.55v6.64q0 8.03-3.77 14.66-3.84 6.56-10.12 10.51-6.29 3.94-14.18 3.94"></path><rect width="56.07" height="102.5" x="-28.04" y="-51.25" fill="none" rx="0" ry="0" transform="translate(471.98 53)"></rect><path fill="#000000" d="M517.455 102.36h-16.2q-.56 0-.56-.7l.28-98.1q0-.7.56-.7h16.06q.56 0 .56.7v33.86l22.41-34q.56-.56 1.05-.56h16.41q.63 0 .28.56l-24.72 39.45 27.72 58.93q.35.56-.7.56h-17.45q-.7 0-.84-.56l-19.34-42.04-4.96 7.82v34.08q0 .7-.56.7"></path><rect width="60.82" height="99.5" x="-30.41" y="-49.75" fill="none" rx="0" ry="0" transform="translate(531.6 53.11)"></rect></svg></svg>