<?xml version="1.0" standalone="no"?>
<!DOCTYPE svg PUBLIC "-//W3C//DTD SVG 20010904//EN"
 "http://www.w3.org/TR/2001/REC-SVG-20010904/DTD/svg10.dtd">
<svg version="1.0" xmlns="http://www.w3.org/2000/svg"
 width="720.000000pt" height="375.000000pt" viewBox="0 0 720.000000 720.000000"
 preserveAspectRatio="xMidYMid meet">

<g transform="translate(0.000000,720.000000) scale(0.100000,-0.100000)"
fill="#000000" stroke="none">
<path d="M1307 4483 c-4 -3 -7 -352 -7 -774 l0 -768 33 -6 c17 -3 247 -5 510
-3 412 3 479 5 487 18 14 22 13 223 -2 238 -8 8 -65 12 -188 12 -97 0 -180 3
-183 7 -4 3 57 72 136 152 153 158 189 212 208 318 34 185 -71 371 -239 423
-77 24 -119 25 -197 5 -69 -18 -119 -49 -192 -117 -43 -42 -52 -47 -57 -31 -3
10 -5 129 -4 264 0 135 -2 251 -6 257 -8 13 -287 18 -299 5z m725 -620 c35
-33 51 -97 37 -149 -20 -72 -57 -118 -252 -313 -174 -173 -195 -191 -200 -170
-3 13 -5 108 -4 211 l2 187 103 103 c57 57 118 114 137 126 68 47 130 49 177
5z"/>
<path d="M5263 4101 c-142 -41 -267 -138 -347 -269 -60 -99 -78 -162 -84 -287
-5 -124 14 -217 66 -323 58 -119 209 -244 348 -288 106 -34 253 -34 359 0 172
55 317 194 385 371 35 92 40 277 10 377 -82 273 -308 439 -595 437 -45 0 -107
-8 -142 -18z m284 -286 c102 -50 165 -160 167 -290 1 -97 -8 -133 -54 -204
-99 -153 -288 -183 -419 -65 -72 64 -104 144 -104 254 0 74 4 93 31 150 34 72
50 93 104 134 81 61 178 68 275 21z"/>
<path d="M2492 4078 c-16 -16 -17 -763 -1 -840 18 -87 73 -191 125 -237 77
-68 137 -85 289 -86 128 0 132 1 198 33 37 19 86 52 107 75 l40 41 0 -49 c0
-79 2 -80 144 -83 115 -3 126 -2 145 17 21 21 21 27 21 555 0 323 -4 545 -10
560 l-10 26 -139 0 c-100 0 -141 -4 -149 -13 -7 -8 -12 -132 -14 -352 -3 -330
-4 -341 -26 -390 -45 -97 -114 -145 -212 -145 -67 0 -129 27 -157 66 -45 65
-48 90 -48 462 0 303 -2 354 -15 362 -23 15 -273 13 -288 -2z"/>
<path d="M3647 4083 c-12 -12 -7 -42 17 -105 14 -35 95 -252 182 -483 177
-476 204 -539 232 -554 12 -7 80 -11 164 -11 117 0 148 3 167 16 29 21 56 79
170 374 217 565 278 735 269 753 -8 15 -26 17 -153 17 -171 0 -153 14 -218
-170 -89 -249 -210 -576 -222 -599 -12 -23 -13 -24 -23 -5 -5 10 -28 71 -51
134 -161 455 -222 616 -237 627 -19 14 -284 19 -297 6z"/>
</g>
</svg>