<svg version="1.2" xmlns="http://www.w3.org/2000/svg" viewBox="-1600 0 4000 162" width="3000" height="110">
	<style>
		.s0 { fill: #000000 } 
	</style>
	<g>
		<path class="s0" d="m130.7 3.7c-0.4 0.3-0.7 35.2-0.7 77.4v76.8l3.3 0.6c1.7 0.3 24.7 0.5 51 0.3 41.2-0.3 47.9-0.5 48.7-1.8 1.4-2.2 1.3-22.3-0.2-23.8-0.8-0.8-6.5-1.2-18.8-1.2-9.7 0-18-0.3-18.3-0.7-0.4-0.3 5.7-7.2 13.6-15.2 15.3-15.8 18.9-21.2 20.8-31.8 3.4-18.5-7.1-37.1-23.9-42.3-7.7-2.4-11.9-2.5-19.7-0.5-6.9 1.8-11.9 4.9-19.2 11.7-4.3 4.2-5.2 4.7-5.7 3.1-0.3-1-0.5-12.9-0.4-26.4 0-13.5-0.2-25.1-0.6-25.7-0.8-1.3-28.7-1.8-29.9-0.5zm72.5 62c3.5 3.3 5.1 9.7 3.7 14.9-2 7.2-5.7 11.8-25.2 31.3-17.4 17.3-19.5 19.1-20 17-0.3-1.3-0.5-10.8-0.4-21.1l0.2-18.7 10.3-10.3c5.7-5.7 11.8-11.4 13.7-12.6 6.8-4.7 13-4.9 17.7-0.5z"/>
		<path class="s0" d="m526.3 41.9c-14.2 4.1-26.7 13.8-34.7 26.9-6 9.9-7.8 16.2-8.4 28.7-0.5 12.4 1.4 21.7 6.6 32.3 5.8 11.9 20.9 24.4 34.8 28.8 10.6 3.4 25.3 3.4 35.9 0 17.2-5.5 31.7-19.4 38.5-37.1 3.5-9.2 4-27.7 1-37.7-8.2-27.3-30.8-43.9-59.5-43.7-4.5 0-10.7 0.8-14.2 1.8zm28.4 28.6c10.2 5 16.5 16 16.7 29 0.1 9.7-0.8 13.3-5.4 20.4-9.9 15.3-28.8 18.3-41.9 6.5-7.2-6.4-10.4-14.4-10.4-25.4 0-7.4 0.4-9.3 3.1-15 3.4-7.2 5-9.3 10.4-13.4 8.1-6.1 17.8-6.8 27.5-2.1z"/>
		<path class="s0" d="m249.2 44.2c-1.6 1.6-1.7 76.3-0.1 84 1.8 8.7 7.3 19.1 12.5 23.7 7.7 6.8 13.7 8.5 28.9 8.6 12.8 0 13.2-0.1 19.8-3.3 3.7-1.9 8.6-5.2 10.7-7.5l4-4.1v4.9c0 7.9 0.2 8 14.4 8.3 11.5 0.3 12.6 0.2 14.5-1.7 2.1-2.1 2.1-2.7 2.1-55.5 0-32.3-0.4-54.5-1-56l-1-2.6h-13.9c-10 0-14.1 0.4-14.9 1.3-0.7 0.8-1.2 13.2-1.4 35.2-0.3 33-0.4 34.1-2.6 39-4.5 9.7-11.4 14.5-21.2 14.5-6.7 0-12.9-2.7-15.7-6.6-4.5-6.5-4.8-9-4.8-46.2 0-30.3-0.2-35.4-1.5-36.2-2.3-1.5-27.3-1.3-28.8 0.2z"/>
		<path class="s0" d="m364.7 43.7c-1.2 1.2-0.7 4.2 1.7 10.5 1.4 3.5 9.5 25.2 18.2 48.3 17.7 47.6 20.4 53.9 23.2 55.4 1.2 0.7 8 1.1 16.4 1.1 11.7 0 14.8-0.3 16.7-1.6 2.9-2.1 5.6-7.9 17-37.4 21.7-56.5 27.8-73.5 26.9-75.3-0.8-1.5-2.6-1.7-15.3-1.7-17.1 0-15.3-1.4-21.8 17-8.9 24.9-21 57.6-22.2 59.9-1.2 2.3-1.3 2.4-2.3 0.5-0.5-1-2.8-7.1-5.1-13.4-16.1-45.5-22.2-61.6-23.7-62.7-1.9-1.4-28.4-1.9-29.7-0.6z"/>
	</g>
</svg>